<?xml version="1.0" encoding="UTF-8" standalone="no"?>
<svg
   xmlns:dc="http://purl.org/dc/elements/1.1/"
   xmlns:cc="http://creativecommons.org/ns#"
   xmlns:rdf="http://www.w3.org/1999/02/22-rdf-syntax-ns#"
   xmlns:svg="http://www.w3.org/2000/svg"
   xmlns="http://www.w3.org/2000/svg"
   xmlns:sodipodi="http://sodipodi.sourceforge.net/DTD/sodipodi-0.dtd"
   xmlns:inkscape="http://www.inkscape.org/namespaces/inkscape"
   inkscape:version="1.0 (4035a4fb49, 2020-05-01)"
   sodipodi:docname="b1793de3-cd87-4d3d-9099-fdc4241b2f81.svg"
   id="svg36"
   version="1.1"
   viewBox="0 0 652.000000 650.000000"
   height="650.000000pt"
   width="652.000000pt">
  <metadata
     id="metadata42">
    <rdf:RDF>
      <cc:Work
         rdf:about="">
        <dc:format>image/svg+xml</dc:format>
        <dc:type
           rdf:resource="http://purl.org/dc/dcmitype/StillImage" />
      </cc:Work>
    </rdf:RDF>
  </metadata>
  <defs
     id="defs40" />
  <sodipodi:namedview
     inkscape:current-layer="svg36"
     inkscape:window-maximized="1"
     inkscape:window-y="-8"
     inkscape:window-x="-8"
     inkscape:cy="404.51863"
     inkscape:cx="434.25099"
     inkscape:zoom="0.98076923"
     showgrid="false"
     id="namedview38"
     inkscape:window-height="1017"
     inkscape:window-width="1920"
     inkscape:pageshadow="2"
     inkscape:pageopacity="0"
     guidetolerance="10"
     gridtolerance="10"
     objecttolerance="10"
     borderopacity="1"
     bordercolor="#666666"
     pagecolor="#ffffff" />
  <g
     id="g12"
     stroke="none"
     fill="#fefefe"
     transform="translate(0.000000,650.000000) scale(0.100000,-0.100000)">
    <path
       id="path2"
       d="M0 3250 l0 -3250 3260 0 3260 0 0 3250 0 3250 -3260 0 -3260 0 0 -3250z m3365 2409 c204 -58 235 -72 287 -126 61 -63 68 -91 68 -275 0 -163 0 -163 -161 -853 -160 -690 -160 -690 -144 -743 21 -69 42 -80 124 -61 71 15 82 38 63 135 -18 86 6 113 54 63 37 -39 76 -38 121 1 18 17 41 30 49 30 30 0 95 44 100 67 11 42 44 57 71 31 13 -12 23 -31 23 -44 0 -21 57 -74 80 -74 7 0 40 16 75 35 225 126 658 175 928 104 64 -17 116 5 124 53 12 79 83 89 83 12 0 -29 32 -64 59 -64 10 0 24 -6 30 -14 12 -14 5 -46 -10 -46 -30 0 1 -34 59 -65 47 -24 107 -72 191 -152 151 -143 229 -278 258 -446 25 -149 14 -445 -22 -556 -27 -83 -27 -83 -2 -110 209 -219 267 -781 112 -1080 -24 -47 -155 -181 -241 -247 -79 -61 -96 -97 -79 -174 10 -45 -19 -78 -47 -53 -15 13 -17 25 -12 65 8 62 1 62 -118 2 -124 -62 -320 -121 -503 -150 -146 -24 -540 -29 -658 -10 -120 20 -121 19 -114 -56 5 -61 -10 -86 -45 -73 -20 8 -40 43 -28 50 14 9 12 78 -3 99 -7 10 -60 35 -116 57 -166 62 -292 155 -332 244 -27 58 -27 381 -1 437 18 41 391 467 491 561 77 74 83 107 21 126 -22 6 -55 25 -74 41 -43 38 -41 38 -167 -16 -115 -50 -131 -68 -146 -158 -13 -84 -79 -78 -85 8 -3 41 -3 41 -74 38 -39 -2 -88 2 -110 8 -36 11 -46 10 -90 -11 -57 -28 -73 -59 -73 -152 -1 -67 -14 -97 -41 -97 -30 0 -40 31 -34 101 11 112 -3 138 -99 195 -126 75 -111 95 -188 -238 -79 -342 -74 -330 -155 -408 -43 -42 -67 -74 -74 -99 -23 -86 -77 -86 -100 0 -13 48 -23 53 -138 69 -112 14 -142 3 -142 -53 0 -30 -29 -77 -47 -77 -17 0 -43 36 -43 59 0 56 -38 163 -68 194 -47 49 -52 74 -52 260 0 136 4 191 21 270 12 54 19 101 16 104 -3 3 -49 -5 -101 -17 -103 -23 -109 -28 -121 -95 -22 -119 -80 -130 -100 -20 -9 51 -21 65 -56 65 -16 0 -47 7 -68 16 -38 15 -42 15 -66 -4 -15 -12 -41 -25 -58 -31 -35 -11 -397 -61 -442 -61 -31 0 -65 -25 -65 -47 0 -60 -54 -86 -62 -30 -4 30 -44 36 -53 8 -25 -79 -75 -51 -75 42 0 42 -6 69 -20 92 -18 29 -18 34 -5 45 24 20 28 5 -240 879 -255 833 -255 833 -255 1000 0 188 10 224 78 294 58 60 76 65 364 107 362 53 386 51 467 -34 43 -44 59 -45 97 -5 79 84 259 93 323 16 19 -24 33 -21 67 14 47 50 118 79 197 79 50 0 67 3 67 14 0 7 9 24 19 38 11 13 24 43 31 66 13 52 29 59 74 38 38 -18 74 -20 96 -6 18 11 50 -15 50 -42 0 -23 52 -78 73 -78 8 0 20 -7 27 -15 8 -10 30 -15 64 -15 28 0 72 -8 98 -17 26 -9 50 -14 53 -11 3 3 43 194 90 426 88 442 97 472 162 534 89 86 164 89 418 17z" />
    <path
       id="path4"
       d="M3069 5530 c-9 -5 -21 -22 -27 -37 -22 -55 -673 -3346 -668 -3369 10 -39 43 -51 207 -74 164 -23 192 -21 203 17 38 130 766 3312 762 3329 -8 32 -16 35 -218 93 -176 51 -228 59 -259 41z" />
    <path
       id="path6"
       d="M1990 4527 c-41 -21 -47 -50 -65 -342 -10 -154 -21 -286 -24 -292 -4 -7 -51 119 -106 279 -103 304 -115 328 -165 328 -59 0 -68 -21 -164 -373 -49 -180 -90 -326 -92 -324 -1 1 -26 144 -54 317 -53 331 -65 376 -102 385 -13 3 -142 -12 -287 -34 -252 -37 -266 -40 -288 -65 -13 -15 -23 -34 -23 -42 0 -39 511 -1680 527 -1691 23 -18 44 -17 259 12 268 36 251 25 289 192 15 65 31 122 35 126 4 5 27 -49 51 -120 57 -165 42 -160 281 -104 101 24 193 50 205 57 31 19 31 21 208 878 169 816 166 795 109 816 -40 15 -563 13 -594 -3z" />
    <path
       id="path8"
       d="M4545 3790 c-222 -46 -356 -113 -482 -243 -98 -100 -97 -93 -53 -288 52 -230 84 -311 168 -427 74 -101 98 -98 234 28 111 101 119 105 233 97 141 -10 201 -52 192 -134 -8 -75 -68 -111 -217 -132 -180 -26 -178 -24 -196 -173 -30 -258 -39 -248 204 -241 202 5 221 0 236 -58 25 -100 -55 -168 -220 -186 -64 -7 -135 15 -217 68 -102 66 -85 77 -362 -236 -268 -304 -267 -303 -158 -385 144 -109 377 -164 693 -164 486 0 798 95 1090 330 151 122 224 285 199 446 -32 219 -125 377 -301 510 -37 29 -64 56 -61 62 4 6 26 34 49 61 281 334 172 752 -251 968 -205 104 -541 146 -780 97z" />
    <path
       id="path10"
       d="M3545 3408 c-80 -76 -446 -494 -452 -517 -12 -49 7 -72 132 -148 158 -97 169 -97 231 -3 56 84 56 84 84 18 41 -99 59 -100 268 -12 163 68 192 88 192 132 0 28 -302 497 -347 540 -34 31 -67 28 -108 -10z" />
  </g>
  <g
     id="g16"
     stroke="none"
     fill="#000000"
     transform="translate(0.000000,650.000000) scale(0.100000,-0.100000)">
    <path
       id="path14"
       d="M3005 5637 c-73 -41 -82 -72 -186 -593 -93 -470 -93 -471 -112 -447 -48 60 -66 63 -417 63 -382 0 -398 -4 -447 -105 -27 -54 -27 -54 -48 -17 -31 56 -85 82 -170 82 -121 0 -175 -48 -205 -182 -14 -63 -14 -63 -25 -2 -24 129 -89 194 -195 194 -99 -1 -576 -76 -612 -97 -71 -41 -88 -95 -88 -291 0 -173 0 -173 254 -1002 140 -457 263 -845 273 -862 49 -84 124 -93 423 -53 225 30 218 28 265 61 37 25 40 25 72 10 55 -26 137 -19 332 28 138 33 181 40 181 30 0 -8 -11 -67 -25 -131 -30 -142 -37 -461 -11 -511 37 -72 89 -95 265 -121 187 -27 245 -27 296 2 61 35 76 75 155 422 40 176 76 324 80 328 4 5 43 -14 86 -41 133 -83 156 -92 231 -92 49 0 77 5 99 19 27 16 34 17 55 5 61 -34 148 -19 327 56 92 39 180 80 196 92 29 21 29 21 60 -15 39 -45 84 -67 136 -67 40 0 40 0 40 -69 0 -70 0 -70 -42 -93 -48 -26 -475 -497 -508 -560 -30 -56 -30 -389 0 -448 54 -106 285 -217 545 -261 156 -26 531 -23 712 5 462 73 880 328 975 594 67 191 68 506 1 719 -26 86 -103 226 -150 275 -25 27 -25 27 2 105 34 97 48 400 25 552 -46 305 -335 590 -675 667 -486 110 -944 19 -1193 -236 -107 -109 -122 -138 -122 -232 0 -73 0 -73 -45 -4 -77 119 -116 146 -210 146 -83 0 -120 -25 -242 -159 -59 -65 -109 -118 -110 -117 0 0 93 406 208 901 209 900 209 900 209 1075 0 260 -3 263 -302 349 -209 60 -294 67 -363 28z m278 -147 c212 -61 236 -70 248 -91 8 -15 -705 -3144 -757 -3322 -11 -35 -37 -38 -181 -17 -179 26 -180 26 -199 54 -14 23 3 118 316 1683 182 912 336 1670 342 1686 23 58 47 59 231 7z m-709 -970 c53 -20 56 2 -114 -822 -176 -848 -172 -833 -203 -852 -42 -26 -377 -99 -402 -88 -17 8 -33 41 -70 151 -26 78 -51 141 -54 141 -4 0 -17 -44 -30 -97 -56 -240 -34 -221 -309 -258 -227 -30 -243 -29 -261 27 -5 18 -121 394 -256 836 -254 830 -251 818 -210 852 22 19 532 92 555 80 28 -15 37 -50 90 -385 28 -176 54 -328 58 -338 5 -11 42 108 102 330 98 360 112 393 160 393 39 0 57 -39 166 -358 60 -178 110 -316 112 -308 2 8 13 158 26 334 23 332 25 344 71 362 28 12 538 12 569 0z m2344 -730 c358 -38 614 -186 735 -425 117 -232 85 -426 -107 -655 -49 -58 -53 -66 -36 -72 63 -23 218 -176 278 -274 66 -106 109 -304 87 -395 -37 -154 -77 -218 -195 -313 -160 -129 -295 -199 -487 -254 -463 -133 -1036 -94 -1276 88 -100 75 -103 68 158 365 275 311 252 294 341 237 113 -73 195 -87 316 -53 117 32 154 74 146 163 -8 82 -10 83 -233 83 -249 1 -233 -12 -216 172 20 202 13 194 173 219 185 28 239 60 246 147 8 95 -48 135 -204 144 -123 8 -131 5 -232 -88 -144 -134 -152 -135 -224 -37 -84 116 -116 197 -168 427 -41 183 -44 169 53 268 196 202 492 290 845 253z m-1280 -377 c28 -24 344 -503 350 -528 7 -37 -31 -63 -190 -129 -208 -87 -206 -87 -255 27 -30 67 -30 67 -86 -18 -43 -64 -63 -85 -79 -85 -32 0 -258 140 -271 167 -16 36 -5 51 207 288 282 314 282 314 324 278z" />
  </g>
  <g
     id="g34"
     stroke="none"
     fill="#3942b6"
     transform="translate(0.000000,650.000000) scale(0.100000,-0.100000)">
    <path
       id="path18"
       d="M3010 5704 c-45 -19 -106 -79 -131 -127 -12 -23 -54 -209 -104 -459 -47 -232 -86 -423 -88 -425 -2 -2 -20 4 -40 12 -20 8 -61 15 -90 15 -36 0 -59 5 -67 15 -7 8 -19 15 -27 15 -21 0 -73 55 -73 78 0 36 -34 56 -73 41 -31 -11 -40 -10 -76 9 -53 28 -76 18 -92 -40 -6 -23 -19 -53 -30 -66 -10 -14 -19 -31 -19 -38 0 -11 -17 -14 -67 -14 -79 0 -150 -29 -197 -79 -30 -31 -30 -31 -51 -11 -81 76 -251 67 -338 -18 -37 -36 -37 -36 -80 5 -87 86 -112 88 -485 33 -288 -42 -306 -47 -364 -107 -69 -71 -78 -105 -78 -303 0 -175 0 -175 256 -1013 251 -820 256 -838 238 -858 -18 -20 -18 -22 4 -59 16 -28 22 -55 22 -98 0 -92 59 -126 90 -51 14 34 32 34 40 -1 14 -58 61 -45 77 20 9 38 33 60 66 60 139 0 481 64 507 95 9 11 16 11 45 -1 19 -8 47 -14 63 -14 37 0 49 -15 58 -70 15 -93 90 -102 110 -13 23 109 21 106 119 130 49 12 90 21 92 20 1 -2 -7 -43 -18 -92 -15 -70 -19 -128 -19 -271 0 -198 5 -222 52 -271 30 -31 68 -138 68 -194 0 -28 27 -59 53 -59 27 0 57 41 57 77 0 56 28 66 140 50 95 -15 120 -28 120 -68 0 -24 38 -69 59 -69 24 0 50 30 62 73 6 23 32 57 74 98 79 76 79 76 156 414 34 149 64 273 68 278 4 4 46 -16 94 -45 102 -60 114 -83 102 -199 -6 -60 -5 -69 14 -88 44 -44 81 -8 82 82 0 95 15 128 71 154 38 19 52 21 75 12 15 -5 61 -9 103 -8 75 2 75 2 78 -37 8 -95 88 -99 106 -5 17 90 31 105 147 156 109 47 109 47 144 16 19 -16 53 -36 75 -42 56 -17 52 -36 -21 -106 -100 -94 -473 -520 -491 -561 -26 -56 -26 -399 1 -457 40 -89 166 -182 332 -244 56 -22 109 -47 116 -57 16 -22 17 -66 1 -82 -16 -16 8 -61 38 -68 48 -12 66 11 58 75 -8 72 -9 72 101 54 111 -18 531 -12 670 11 183 29 379 88 503 150 111 56 105 56 96 1 -10 -70 32 -109 71 -65 14 15 16 29 11 61 -13 78 -1 102 79 164 85 65 216 199 240 246 102 196 118 575 34 834 -28 88 -107 232 -147 268 -19 18 -19 18 5 95 34 104 45 423 20 569 -29 168 -107 303 -258 446 -84 80 -144 128 -191 152 -61 32 -67 38 -53 51 28 29 12 74 -27 74 -26 0 -58 36 -58 64 0 81 -90 71 -103 -12 -8 -46 -52 -67 -110 -52 -266 71 -718 21 -943 -105 -64 -36 -64 -36 -99 -9 -21 16 -35 35 -35 48 0 67 -89 81 -111 18 -10 -29 -72 -72 -103 -72 -8 0 -31 -13 -49 -30 -44 -38 -63 -38 -103 1 -59 57 -94 21 -74 -76 18 -89 10 -108 -55 -123 -69 -16 -88 -7 -109 53 -15 46 -15 46 144 733 160 687 160 687 160 860 0 195 -6 221 -68 285 -52 54 -83 68 -287 126 -198 56 -295 65 -365 35z m348 -105 c297 -85 302 -90 302 -339 0 -165 0 -165 -215 -1089 -118 -509 -213 -926 -212 -928 2 -1 58 58 125 132 133 146 173 175 247 175 83 0 123 -29 203 -150 l57 -85 5 90 c6 110 14 124 122 235 248 254 695 344 1173 236 331 -75 619 -352 671 -646 30 -167 14 -466 -31 -579 -25 -65 -25 -65 4 -95 190 -196 263 -666 153 -978 -95 -266 -514 -522 -975 -594 -181 -28 -537 -31 -692 -5 -260 44 -491 155 -545 261 -30 58 -30 372 0 428 33 63 460 534 508 560 42 23 42 23 42 103 0 79 0 79 -40 79 -55 0 -111 31 -147 79 -30 41 -30 41 -53 16 -13 -14 -99 -57 -201 -100 -193 -82 -255 -93 -321 -59 -29 15 -33 15 -68 -5 -83 -46 -144 -32 -313 71 -54 33 -100 58 -103 55 -3 -3 -41 -156 -83 -340 -83 -357 -95 -390 -157 -424 -49 -29 -92 -29 -275 -2 -259 38 -279 61 -279 320 0 152 3 188 30 317 33 158 33 157 -1 142 -50 -21 -363 -90 -411 -90 -29 0 -65 8 -89 20 -40 21 -40 21 -68 -3 -45 -37 -74 -45 -277 -72 -295 -39 -358 -31 -407 53 -10 17 -133 405 -273 862 -254 829 -254 829 -254 992 0 185 18 241 88 281 34 20 510 96 602 97 96 0 171 -81 185 -200 10 -86 20 -89 39 -13 38 152 88 203 201 203 85 0 131 -28 172 -105 28 -52 32 -56 33 -32 0 55 46 125 100 152 49 25 49 25 360 25 347 0 359 -2 414 -72 31 -41 18 -88 125 457 101 513 113 552 186 592 66 37 137 31 343 -28z" />
    <path
       id="path20"
       d="M5690 2487 c0 -2 15 -16 33 -33 32 -29 32 -29 3 4 -28 30 -36 37 -36 29z" />
    <path
       id="path24"
       d="M2273 4934 c-8 -21 13 -42 28 -27 13 13 5 43 -11 43 -6 0 -13 -7 -17 -16z" />
    <path
       id="path26"
       d="M2471 4847 c-14 -17 3 -41 23 -34 9 4 16 13 16 21 0 19 -26 28 -39 13z" />
    <path
       id="path28"
       d="M2035 4810 c-4 -7 -3 -16 3 -22 14 -14 45 -2 40 15 -6 16 -34 21 -43 7z" />
    <path
       id="path30"
       d="M5371 4046 c-14 -17 -7 -36 14 -36 22 0 29 20 13 36 -13 13 -16 13 -27 0z" />
    <path
       id="path32"
       d="M3691 3876 c-17 -20 13 -43 34 -26 15 12 5 40 -15 40 -4 0 -13 -6 -19 -14z" />
  </g>
</svg>
